<svg width="337" height="32" viewBox="0 0 337 32" fill="none" xmlns="http://www.w3.org/2000/svg">
<path d="M182.943 30.9219L179.711 21.9268H170.03L166.798 30.9219H164.502L175.278 0.855566L175.558 0.815552H176.878V1.18368L187.575 30.9219H182.935H182.943ZM178.911 19.7181L174.862 8.45818L170.814 19.7181H178.911Z" fill="white"/>
<path d="M198.793 30.9458V3.69644H190.721V1.34363H211.146V3.69644H203.073V30.9458H198.793Z" fill="white"/>
<path d="M219.307 30.9458V1.34363H235.019V3.69644H223.579V14.6282H231.675V16.981H223.579V28.593H235.019V30.9458H219.307Z" fill="white"/>
<path d="M288.029 30.9458V1.34363H303.742V3.69644H292.309V14.6282H300.398V16.981H292.309V28.593H303.742V30.9458H288.029Z" fill="white"/>
<path d="M246.098 30.9458V1.34363H250.378V28.593H261.81V30.9458H246.098Z" fill="white"/>
<path d="M275.667 1.34363H271.387V30.9458H275.667V1.34363Z" fill="white"/>
<path d="M313.342 30.9458V1.59973L313.67 1.53571C313.838 1.5037 317.766 0.783447 320.614 0.783447C323.919 0.783447 331.599 1.5277 331.599 8.41007C331.599 13.3878 326.687 15.1244 324.239 15.6846L336.055 30.9218H330.559L317.662 14.3001H320.11C320.11 14.3001 321.863 14.2841 323.567 13.5318C325.791 12.5555 326.919 10.8269 326.919 8.40207C326.919 6.65747 326.231 5.28099 324.871 4.31266C322.959 2.95219 320.374 2.80814 319.358 2.80814C318.686 2.80814 318.046 2.86416 317.606 2.9682V30.9458H313.326H313.342Z" fill="white"/>
<path d="M98.1564 30.9458V1.59973L98.4845 1.53571C98.6525 1.5037 102.581 0.783447 105.429 0.783447C108.733 0.783447 116.413 1.5277 116.413 8.41007C116.413 13.3878 111.501 15.1244 109.061 15.6846L120.877 30.9218H115.381L102.485 14.3001H104.933C104.933 14.3001 106.685 14.2841 108.389 13.5318C110.613 12.5555 111.741 10.8269 111.741 8.40207C111.741 6.65747 111.053 5.28099 109.693 4.31266C107.781 2.95219 105.197 2.80814 104.181 2.80814C103.509 2.80814 102.869 2.86416 102.429 2.9682V30.9458H98.1484H98.1564Z" fill="white"/>
<path d="M78.1792 31.5701C73.539 31.5701 70.3069 29.9695 68.5868 26.8164C67.2188 24.3116 67.2188 21.5586 67.2188 20.3822V1.36768H71.4989V20.3262C71.4989 20.5103 71.4589 24.7117 73.915 27.2246C75.1471 28.489 76.8192 29.1292 78.8833 29.1292C80.7633 29.1292 82.2834 28.553 83.4115 27.4166C84.9635 25.8481 85.8116 23.1272 85.7876 19.758V1.36768H88.1317V19.87C88.1397 20.0861 88.3717 25.464 85.1075 28.8891C83.4115 30.6738 81.0834 31.5781 78.1872 31.5781L78.1792 31.5701Z" fill="white"/>
<path d="M144.238 30.9219L141.006 21.9268H131.325L128.093 30.9219H125.797L136.573 0.855566L136.853 0.815552H138.053L148.87 30.9219H144.23H144.238ZM140.205 19.7181L136.157 8.45818L132.109 19.7181H140.205Z" fill="white"/>
<path d="M54.9935 30.9219L51.7614 21.9268H42.081L38.8488 30.9219H36.5527L47.3292 0.855566L47.6092 0.815552H48.8093L59.6257 30.9219H54.9855H54.9935ZM50.9614 19.7181L46.9132 8.45818L42.865 19.7181H50.9614Z" fill="white"/>
<path d="M15.0327 31.5701C6.74429 31.5701 0 24.6718 0 16.1968C0 7.72193 6.74429 0.815552 15.0327 0.815552C16.2727 0.815552 17.5208 0.975607 18.7368 1.28771L19.0408 1.36774V4.90496L18.4488 4.59285C16.9367 3.79258 15.2967 3.36043 13.7046 3.36043C12.8006 3.36043 11.9125 3.49647 11.0645 3.76057C8.37636 4.60886 6.26427 6.68157 5.12822 9.61058C3.97617 12.5476 3.92817 16.0048 4.98422 19.3579C6.04026 22.7031 8.05635 25.496 10.6645 27.2166C12.4005 28.361 14.3046 28.9692 16.1927 28.9692C17.0967 28.9692 17.9928 28.8332 18.8568 28.5611C23.369 27.1366 26.2171 22.2309 25.8251 16.597H18.2408V12.5876H29.6653L29.7293 12.9077C29.9613 13.9881 30.0733 15.0925 30.0733 16.1968C30.0733 24.6798 23.329 31.5781 15.0407 31.5781L15.0327 31.5701Z" fill="white"/>
</svg>
