<svg width="245" height="22" viewBox="0 0 245 22" fill="none" xmlns="http://www.w3.org/2000/svg">
<g clip-path="url(#clip0_90_6057)">
<path d="M125.02 21.0109L122.81 14.9045H116.191L113.981 21.0109H112.412L119.789 0.596116L119.98 0.568359H120.883V0.818166L128.194 21.0155H125.025L125.02 21.0109ZM122.27 13.401L119.505 5.75416L116.74 13.401H122.27Z" fill="#D8C8AC"/>
<path d="M135.856 21.0294V2.52517H130.336V0.924561H144.294V2.52517H138.779V21.0294H135.856Z" fill="#D8C8AC"/>
<path d="M149.869 21.0294V0.924561H160.606V2.52517H152.792V9.94535H158.326V11.546H152.792V19.4287H160.606V21.0294H149.869Z" fill="#D8C8AC"/>
<path d="M196.838 21.0294V0.924561H207.575V2.52517H199.761V9.94535H205.29V11.546H199.761V19.4287H207.575V21.0294H196.838Z" fill="#D8C8AC"/>
<path d="M168.184 21.0294V0.924561H171.106V19.4287H178.921V21.0294H168.184Z" fill="#D8C8AC"/>
<path d="M188.388 0.924561H185.465V21.0247H188.388V0.924561Z" fill="#D8C8AC"/>
<path d="M214.137 21.0293V1.1003L214.361 1.05867C214.477 1.03554 217.158 0.549805 219.103 0.549805C221.361 0.549805 226.611 1.05404 226.611 5.72635C226.611 9.10799 223.255 10.2876 221.584 10.667L229.659 21.0108H225.903L217.093 9.72325H218.768C218.768 9.72325 219.969 9.70938 221.128 9.20051C222.65 8.53436 223.423 7.36397 223.423 5.72172C223.423 4.53746 222.952 3.60299 222.026 2.9461C220.718 2.02089 218.955 1.92374 218.256 1.92374C217.8 1.92374 217.363 1.96537 217.056 2.03014V21.0293H214.133H214.137Z" fill="#D8C8AC"/>
<path d="M67.0808 21.0293V1.1003L67.3042 1.05867C67.4206 1.03554 70.1014 0.549805 72.0468 0.549805C74.3041 0.549805 79.554 1.05404 79.554 5.72635C79.554 9.10799 76.1983 10.2876 74.5275 10.667L82.6025 21.0108H78.8466L70.0362 9.72325H71.7117C71.7117 9.72325 72.9125 9.70938 74.0714 9.20051C75.5933 8.53436 76.3659 7.36397 76.3659 5.72172C76.3659 4.53746 75.8958 3.60299 74.9696 2.9461C73.6618 2.02089 71.8979 1.92374 71.1998 1.92374C70.7437 1.92374 70.3062 1.96537 69.999 2.03014V21.0293H67.0762H67.0808Z" fill="#D8C8AC"/>
<path d="M53.4248 21.4504C50.2507 21.4504 48.0446 20.3632 46.8671 18.2214C45.9316 16.519 45.9316 14.6501 45.9316 13.8544V0.938477H48.8545V13.8128C48.8545 13.9377 48.8265 16.7873 50.5067 18.4989C51.3491 19.3594 52.494 19.7942 53.9042 19.7942C55.1888 19.7942 56.2267 19.4057 56.9946 18.6331C58.0557 17.5691 58.6329 15.7233 58.6189 13.4334V0.938477H60.2246V13.4982C60.2339 13.6462 60.3875 17.2962 58.1581 19.6231C56.9992 20.8351 55.4075 21.4457 53.4295 21.4457L53.4248 21.4504Z" fill="#D8C8AC"/>
<path d="M98.571 21.0109L96.3603 14.9045H89.7421L87.5313 21.0109H85.9629L93.3351 0.596116L93.5259 0.568359H94.345L101.736 21.0155H98.5664L98.571 21.0109ZM95.8204 13.401L93.0558 5.75416L90.2913 13.401H95.8204Z" fill="#D8C8AC"/>
<path d="M37.5827 21.0109L35.372 14.9045H28.7538L26.5431 21.0109H24.9746L32.3468 0.596116L32.5376 0.568359H33.3568L40.7522 21.0155H37.5827V21.0109ZM34.8275 13.401L32.0629 5.75416L29.2983 13.401H34.8275Z" fill="#D8C8AC"/>
<path d="M10.2764 21.4503C4.60763 21.4503 0 16.7688 0 11.0093C0 5.24991 4.60763 0.563721 10.2764 0.563721C11.1281 0.563721 11.9752 0.67012 12.8036 0.887544L13.0084 0.943057V3.34397L12.6035 3.13118C11.5703 2.5853 10.4486 2.29849 9.36418 2.29849C8.74518 2.29849 8.13548 2.39101 7.55837 2.57142C5.71997 3.14968 4.28183 4.556 3.49993 6.54057C2.71338 8.5344 2.6808 10.8844 3.4022 13.1604C4.12359 15.4318 5.50122 17.3285 7.28377 18.4989C8.46593 19.2761 9.77375 19.6878 11.0583 19.6878C11.6773 19.6878 12.287 19.5953 12.8781 19.4102C15.9638 18.4434 17.9092 15.1126 17.6393 11.2869H12.4592V8.56678H20.2642L20.3108 8.7842C20.469 9.51974 20.5481 10.2692 20.5481 11.014C20.5481 16.7734 15.9405 21.4596 10.2717 21.4596L10.2764 21.4503Z" fill="#D8C8AC"/>
<path d="M237.739 1.38249C238.12 1.2946 238.521 1.24834 238.93 1.24834C239.34 1.24834 239.745 1.2946 240.131 1.38249C240.406 1.15582 240.699 1.00316 241.029 0.919888C240.373 0.679334 239.67 0.549805 238.93 0.549805C238.19 0.549805 237.488 0.679334 236.836 0.919888C237.166 1.00316 237.464 1.15582 237.739 1.38249Z" fill="#D8C8AC"/>
<path d="M243.542 3.60304C243.524 3.65855 243.505 3.70944 243.486 3.76495C243.956 4.51437 244.245 5.38869 244.292 6.32778C244.599 6.57759 244.822 6.88291 244.971 7.1836C244.99 6.98468 244.999 6.78576 244.999 6.58684C244.999 5.15277 244.496 3.83897 243.654 2.80273C243.663 3.06642 243.626 3.33473 243.542 3.60304Z" fill="#D8C8AC"/>
<path d="M233.564 6.33698C233.606 5.38864 233.899 4.50969 234.379 3.75102C234.36 3.70014 234.341 3.65388 234.327 3.60299C234.239 3.32543 234.206 3.05249 234.216 2.78418C233.369 3.82041 232.861 5.14346 232.861 6.58679C232.861 6.79496 232.871 7.00313 232.894 7.20668C233.038 6.90136 233.262 6.59142 233.569 6.33698H233.564Z" fill="#D8C8AC"/>
<path d="M242.011 11.7493C241.606 11.7493 241.267 11.6429 240.997 11.5088C240.359 11.7725 239.661 11.9205 238.926 11.9205C238.19 11.9205 237.497 11.7725 236.864 11.5134C236.594 11.6476 236.259 11.7493 235.858 11.7493C235.83 11.7493 235.807 11.7493 235.779 11.7493C236.696 12.3045 237.776 12.6237 238.926 12.6237C240.075 12.6237 241.155 12.3045 242.072 11.7493C242.048 11.7493 242.03 11.7493 242.007 11.7493H242.011Z" fill="#D8C8AC"/>
<path d="M244.614 7.96067C244.562 7.61372 244.339 7.09098 243.874 6.7394C243.711 6.61912 243.371 6.41558 242.901 6.41558C242.431 6.41558 241.979 6.60524 241.514 6.97995C241.016 7.3963 240.481 7.87278 240.267 8.06707C240.025 6.90131 239.95 5.99923 240.011 5.04627C240.062 4.25984 240.234 3.65845 240.56 3.14959C240.779 2.80726 241.039 2.58984 241.356 2.48806C241.43 2.46493 241.505 2.45105 241.579 2.45105C241.733 2.45105 241.868 2.50657 241.961 2.60834C242.054 2.71474 242.096 2.85815 242.077 3.02006C242.049 3.26986 241.961 3.5428 241.816 3.82962C241.57 4.3246 241.211 4.84272 240.723 5.41172L240.709 5.4256V5.44411C240.709 5.57826 240.718 5.78181 240.746 6.03624L240.76 6.15652L240.881 6.03624C241.281 5.63377 241.7 5.22206 242.1 4.80571C242.538 4.35699 242.822 3.90826 242.971 3.43178C243.138 2.89978 243.068 2.37241 242.78 1.98382C242.515 1.62762 242.096 1.42407 241.621 1.42407C241.519 1.42407 241.411 1.43332 241.304 1.45183C240.82 1.5351 240.429 1.80341 240.066 2.28914C239.787 2.66385 239.587 3.12646 239.475 3.66308C239.443 3.82962 239.424 3.99153 239.406 4.14881L239.396 4.21358C239.15 6.24441 239.717 8.15959 239.81 8.44641C239.676 8.56669 239.094 9.07555 238.926 9.22359C238.754 9.07555 238.177 8.56669 238.042 8.44641C238.13 8.15959 238.703 6.24904 238.456 4.21358L238.447 4.14881C238.428 3.99153 238.41 3.82962 238.377 3.66308C238.265 3.13108 238.07 2.66848 237.786 2.28914C237.423 1.80341 237.032 1.5351 236.548 1.45183C236.441 1.43332 236.334 1.42407 236.231 1.42407C235.757 1.42407 235.333 1.62762 235.073 1.98382C234.784 2.37241 234.714 2.89978 234.882 3.43178C235.031 3.90826 235.315 4.35699 235.752 4.80571C236.157 5.21743 236.571 5.63377 236.971 6.03624L237.092 6.15652L237.106 6.03624C237.134 5.78643 237.148 5.57826 237.144 5.44411V5.4256L237.13 5.41172C236.641 4.84272 236.283 4.3246 236.036 3.82962C235.892 3.5428 235.808 3.26986 235.775 3.02006C235.757 2.85352 235.794 2.71011 235.892 2.60834C235.985 2.50657 236.12 2.45105 236.273 2.45105C236.348 2.45105 236.422 2.46493 236.497 2.48806C236.813 2.58984 237.074 2.80726 237.293 3.14959C237.618 3.65845 237.791 4.25984 237.842 5.04627C237.902 5.99923 237.828 6.90131 237.586 8.06707C237.372 7.87278 236.836 7.3963 236.338 6.97995C235.878 6.60524 235.412 6.41558 234.952 6.41558C234.491 6.41558 234.142 6.61912 233.979 6.7394C233.513 7.08635 233.29 7.61372 233.239 7.96067C232.992 9.68619 234.156 10.5559 234.872 10.9167C235.203 11.0833 235.529 11.1712 235.845 11.1712C236.641 11.1712 237.088 10.6345 237.139 10.5744C237.325 10.3385 237.488 10.047 237.623 9.70932L237.767 9.30223L237.33 9.00154C237.213 9.32073 236.757 10.3893 236.003 10.394C235.975 10.394 235.952 10.394 235.934 10.394C235.571 10.394 234.975 10.1257 234.598 9.63068C234.342 9.29298 233.997 8.62682 234.309 7.92367C234.463 7.57671 234.844 7.35929 235.198 7.35929C235.217 7.35929 235.231 7.35929 235.249 7.35929C235.584 7.37779 235.803 7.53508 236.059 7.72012C236.12 7.76175 236.18 7.80801 236.245 7.84965C236.636 8.11796 237.73 8.89976 238.316 9.31611C238.442 9.404 238.54 9.47339 238.596 9.51503C238.465 9.63068 238.377 9.71857 238.326 9.77871C238 10.1858 238.047 10.5883 238.2 10.8334C238.293 10.9861 238.549 11.2128 238.884 11.2128C239.359 11.2128 239.554 10.9861 239.652 10.8334C239.806 10.5929 239.852 10.1858 239.527 9.77871C239.48 9.71857 239.392 9.63068 239.257 9.51503C239.317 9.47339 239.415 9.404 239.536 9.31611C240.122 8.89514 241.221 8.11796 241.607 7.84965C241.672 7.80339 241.733 7.76175 241.793 7.72012C242.049 7.53508 242.268 7.37317 242.603 7.35929C242.622 7.35929 242.636 7.35929 242.654 7.35929C243.008 7.35929 243.39 7.57671 243.543 7.92367C243.855 8.62682 243.511 9.2976 243.255 9.63068C242.878 10.1257 242.282 10.394 241.919 10.394C241.896 10.394 241.872 10.394 241.849 10.394C241.095 10.394 240.644 9.32073 240.523 9.00154L240.085 9.30223L240.229 9.70932C240.36 10.047 240.523 10.3385 240.713 10.5744C240.76 10.6345 241.207 11.1712 242.007 11.1712C242.324 11.1712 242.65 11.0879 242.98 10.9167C243.697 10.5513 244.86 9.68619 244.614 7.96067ZM239.229 10.3755C239.229 10.3755 239.178 10.4356 239.089 10.4726C239.084 10.4726 239.075 10.4726 239.07 10.4772C239.01 10.4957 238.935 10.4957 238.931 10.4957C238.931 10.4957 238.852 10.4957 238.791 10.4772C238.787 10.4772 238.777 10.4772 238.773 10.4726C238.684 10.4402 238.633 10.3755 238.633 10.3755C238.549 10.2459 238.591 10.0887 238.749 9.91749C238.787 9.87586 238.847 9.8296 238.931 9.76946C239.015 9.8296 239.075 9.87586 239.112 9.91749C239.271 10.0887 239.312 10.2413 239.229 10.3755Z" fill="#D8C8AC"/>
</g>
<defs>
<clipPath id="clip0_90_6057">
<rect width="245" height="20.9005" fill="white" transform="translate(0 0.549805)"/>
</clipPath>
</defs>
</svg>
